<mxfile host="app.diagrams.net" modified="2023-11-13T02:30:45.500Z" agent="Mozilla/5.0 (Windows NT 10.0; Win64; x64) AppleWebKit/537.36 (KHTML, like Gecko) Chrome/119.0.0.0 Safari/537.36" etag="aUMmGPywYrv222dzMh8p" version="22.1.0" type="github">
  <diagram name="페이지-1" id="Vgb7DsIHNem7C9-14Kua">
    <mxGraphModel dx="674" dy="1057" grid="1" gridSize="10" guides="1" tooltips="1" connect="1" arrows="1" fold="1" page="1" pageScale="1" pageWidth="827" pageHeight="1169" math="0" shadow="0">
      <root>
        <mxCell id="0" />
        <mxCell id="1" parent="0" />
        <mxCell id="adEvEQLCfgkiyF7GXVpE-2" value="&lt;font style=&quot;font-size: 36px;&quot;&gt;CNN&lt;/font&gt;" style="rounded=0;whiteSpace=wrap;html=1;fillColor=#dae8fc;strokeColor=#6c8ebf;" vertex="1" parent="1">
          <mxGeometry x="120" y="160" width="140" height="100" as="geometry" />
        </mxCell>
        <mxCell id="adEvEQLCfgkiyF7GXVpE-3" value="&lt;font style=&quot;font-size: 36px;&quot;&gt;CNN&lt;/font&gt;" style="rounded=0;whiteSpace=wrap;html=1;fillColor=#dae8fc;strokeColor=#6c8ebf;" vertex="1" parent="1">
          <mxGeometry x="540" y="160" width="140" height="100" as="geometry" />
        </mxCell>
        <mxCell id="adEvEQLCfgkiyF7GXVpE-4" value="&lt;font style=&quot;font-size: 36px;&quot;&gt;LSTM&lt;/font&gt;" style="rounded=0;whiteSpace=wrap;html=1;fillColor=#f8cecc;strokeColor=#b85450;" vertex="1" parent="1">
          <mxGeometry x="120" y="340" width="140" height="60" as="geometry" />
        </mxCell>
        <mxCell id="adEvEQLCfgkiyF7GXVpE-8" value="&lt;font style=&quot;font-size: 36px;&quot;&gt;LSTM&lt;/font&gt;" style="rounded=0;whiteSpace=wrap;html=1;fillColor=#f8cecc;strokeColor=#b85450;" vertex="1" parent="1">
          <mxGeometry x="120" y="480" width="140" height="60" as="geometry" />
        </mxCell>
        <mxCell id="adEvEQLCfgkiyF7GXVpE-9" value="&lt;font style=&quot;font-size: 36px;&quot;&gt;LSTM&lt;/font&gt;" style="rounded=0;whiteSpace=wrap;html=1;fillColor=#f8cecc;strokeColor=#b85450;" vertex="1" parent="1">
          <mxGeometry x="540" y="340" width="140" height="60" as="geometry" />
        </mxCell>
        <mxCell id="adEvEQLCfgkiyF7GXVpE-10" value="&lt;font style=&quot;font-size: 36px;&quot;&gt;LSTM&lt;/font&gt;" style="rounded=0;whiteSpace=wrap;html=1;fillColor=#f8cecc;strokeColor=#b85450;" vertex="1" parent="1">
          <mxGeometry x="540" y="480" width="140" height="60" as="geometry" />
        </mxCell>
        <mxCell id="adEvEQLCfgkiyF7GXVpE-13" value="" style="endArrow=classic;html=1;rounded=0;entryX=0.5;entryY=0;entryDx=0;entryDy=0;" edge="1" parent="1" target="adEvEQLCfgkiyF7GXVpE-4">
          <mxGeometry width="50" height="50" relative="1" as="geometry">
            <mxPoint x="189.17" y="260" as="sourcePoint" />
            <mxPoint x="189.17" y="330" as="targetPoint" />
          </mxGeometry>
        </mxCell>
        <mxCell id="adEvEQLCfgkiyF7GXVpE-15" value="" style="endArrow=classic;html=1;rounded=0;entryX=0.5;entryY=0;entryDx=0;entryDy=0;" edge="1" parent="1">
          <mxGeometry width="50" height="50" relative="1" as="geometry">
            <mxPoint x="189.17" y="80" as="sourcePoint" />
            <mxPoint x="190" y="160" as="targetPoint" />
          </mxGeometry>
        </mxCell>
        <mxCell id="adEvEQLCfgkiyF7GXVpE-16" value="" style="endArrow=classic;html=1;rounded=0;entryX=0.5;entryY=0;entryDx=0;entryDy=0;" edge="1" parent="1">
          <mxGeometry width="50" height="50" relative="1" as="geometry">
            <mxPoint x="609.17" y="80" as="sourcePoint" />
            <mxPoint x="610" y="160" as="targetPoint" />
          </mxGeometry>
        </mxCell>
        <mxCell id="adEvEQLCfgkiyF7GXVpE-17" value="" style="endArrow=classic;html=1;rounded=0;entryX=0.5;entryY=0;entryDx=0;entryDy=0;" edge="1" parent="1">
          <mxGeometry width="50" height="50" relative="1" as="geometry">
            <mxPoint x="609.17" y="260" as="sourcePoint" />
            <mxPoint x="610" y="340" as="targetPoint" />
          </mxGeometry>
        </mxCell>
        <mxCell id="adEvEQLCfgkiyF7GXVpE-18" value="" style="curved=1;endArrow=classic;html=1;rounded=0;exitX=0.5;exitY=1;exitDx=0;exitDy=0;entryX=0.5;entryY=0;entryDx=0;entryDy=0;" edge="1" parent="1" source="adEvEQLCfgkiyF7GXVpE-2" target="adEvEQLCfgkiyF7GXVpE-8">
          <mxGeometry width="50" height="50" relative="1" as="geometry">
            <mxPoint x="40" y="470" as="sourcePoint" />
            <mxPoint x="90" y="420" as="targetPoint" />
            <Array as="points">
              <mxPoint x="80" y="310" />
              <mxPoint x="80" y="450" />
            </Array>
          </mxGeometry>
        </mxCell>
        <mxCell id="adEvEQLCfgkiyF7GXVpE-19" value="" style="curved=1;endArrow=classic;html=1;rounded=0;exitX=0.5;exitY=1;exitDx=0;exitDy=0;entryX=0.5;entryY=0;entryDx=0;entryDy=0;" edge="1" parent="1">
          <mxGeometry width="50" height="50" relative="1" as="geometry">
            <mxPoint x="190" y="400" as="sourcePoint" />
            <mxPoint x="190" y="620" as="targetPoint" />
            <Array as="points">
              <mxPoint x="300" y="450" />
              <mxPoint x="300" y="590" />
            </Array>
          </mxGeometry>
        </mxCell>
        <mxCell id="adEvEQLCfgkiyF7GXVpE-20" value="" style="endArrow=classic;html=1;rounded=0;entryX=0.5;entryY=0;entryDx=0;entryDy=0;" edge="1" parent="1">
          <mxGeometry width="50" height="50" relative="1" as="geometry">
            <mxPoint x="189.41" y="540" as="sourcePoint" />
            <mxPoint x="190.24" y="620" as="targetPoint" />
          </mxGeometry>
        </mxCell>
        <mxCell id="adEvEQLCfgkiyF7GXVpE-21" value="" style="curved=1;endArrow=classic;html=1;rounded=0;exitX=0.5;exitY=1;exitDx=0;exitDy=0;entryX=0.5;entryY=0;entryDx=0;entryDy=0;" edge="1" parent="1">
          <mxGeometry width="50" height="50" relative="1" as="geometry">
            <mxPoint x="610" y="260" as="sourcePoint" />
            <mxPoint x="610" y="480" as="targetPoint" />
            <Array as="points">
              <mxPoint x="500" y="310" />
              <mxPoint x="500" y="450" />
            </Array>
          </mxGeometry>
        </mxCell>
        <mxCell id="adEvEQLCfgkiyF7GXVpE-22" value="" style="curved=1;endArrow=classic;html=1;rounded=0;exitX=0.5;exitY=1;exitDx=0;exitDy=0;entryX=0.5;entryY=0;entryDx=0;entryDy=0;" edge="1" parent="1">
          <mxGeometry width="50" height="50" relative="1" as="geometry">
            <mxPoint x="610" y="400" as="sourcePoint" />
            <mxPoint x="610" y="620" as="targetPoint" />
            <Array as="points">
              <mxPoint x="720" y="450" />
              <mxPoint x="720" y="590" />
            </Array>
          </mxGeometry>
        </mxCell>
        <mxCell id="adEvEQLCfgkiyF7GXVpE-23" value="" style="endArrow=classic;html=1;rounded=0;entryX=0.5;entryY=0;entryDx=0;entryDy=0;" edge="1" parent="1">
          <mxGeometry width="50" height="50" relative="1" as="geometry">
            <mxPoint x="609.41" y="540" as="sourcePoint" />
            <mxPoint x="610.24" y="620" as="targetPoint" />
          </mxGeometry>
        </mxCell>
        <mxCell id="adEvEQLCfgkiyF7GXVpE-24" value="" style="endArrow=classic;html=1;rounded=0;exitX=1;exitY=0.5;exitDx=0;exitDy=0;" edge="1" parent="1" source="adEvEQLCfgkiyF7GXVpE-4">
          <mxGeometry width="50" height="50" relative="1" as="geometry">
            <mxPoint x="270" y="369.41" as="sourcePoint" />
            <mxPoint x="350" y="369.41" as="targetPoint" />
          </mxGeometry>
        </mxCell>
        <mxCell id="adEvEQLCfgkiyF7GXVpE-25" value="" style="endArrow=classic;html=1;rounded=0;entryX=0;entryY=0.5;entryDx=0;entryDy=0;" edge="1" parent="1" target="adEvEQLCfgkiyF7GXVpE-9">
          <mxGeometry width="50" height="50" relative="1" as="geometry">
            <mxPoint x="450" y="370.3" as="sourcePoint" />
            <mxPoint x="530" y="369.71000000000004" as="targetPoint" />
          </mxGeometry>
        </mxCell>
        <mxCell id="adEvEQLCfgkiyF7GXVpE-26" value="&lt;font style=&quot;font-size: 24px;&quot;&gt;● ● ● ●&lt;/font&gt;" style="text;html=1;strokeColor=none;fillColor=none;align=center;verticalAlign=middle;whiteSpace=wrap;rounded=0;" vertex="1" parent="1">
          <mxGeometry x="350" y="355" width="100" height="26" as="geometry" />
        </mxCell>
        <mxCell id="adEvEQLCfgkiyF7GXVpE-28" value="&lt;font style=&quot;font-size: 24px;&quot;&gt;● ● ● ●&lt;/font&gt;" style="text;html=1;strokeColor=none;fillColor=none;align=center;verticalAlign=middle;whiteSpace=wrap;rounded=0;" vertex="1" parent="1">
          <mxGeometry x="350" y="496" width="100" height="26" as="geometry" />
        </mxCell>
        <mxCell id="adEvEQLCfgkiyF7GXVpE-31" value="" style="endArrow=classic;html=1;rounded=0;exitX=1;exitY=0.5;exitDx=0;exitDy=0;" edge="1" parent="1">
          <mxGeometry width="50" height="50" relative="1" as="geometry">
            <mxPoint x="350" y="509.3" as="sourcePoint" />
            <mxPoint x="260" y="508.71000000000004" as="targetPoint" />
          </mxGeometry>
        </mxCell>
        <mxCell id="adEvEQLCfgkiyF7GXVpE-32" value="" style="endArrow=classic;html=1;rounded=0;entryX=0;entryY=0.5;entryDx=0;entryDy=0;" edge="1" parent="1">
          <mxGeometry width="50" height="50" relative="1" as="geometry">
            <mxPoint x="540" y="510.06" as="sourcePoint" />
            <mxPoint x="450" y="509.76" as="targetPoint" />
          </mxGeometry>
        </mxCell>
        <mxCell id="adEvEQLCfgkiyF7GXVpE-33" value="" style="endArrow=classic;html=1;rounded=0;entryX=1;entryY=0.5;entryDx=0;entryDy=0;" edge="1" parent="1" target="adEvEQLCfgkiyF7GXVpE-10">
          <mxGeometry width="50" height="50" relative="1" as="geometry">
            <mxPoint x="730" y="510" as="sourcePoint" />
            <mxPoint x="790" y="410" as="targetPoint" />
          </mxGeometry>
        </mxCell>
        <mxCell id="adEvEQLCfgkiyF7GXVpE-34" value="" style="endArrow=none;html=1;rounded=0;" edge="1" parent="1">
          <mxGeometry width="50" height="50" relative="1" as="geometry">
            <mxPoint x="680" y="369.6" as="sourcePoint" />
            <mxPoint x="730" y="369.6" as="targetPoint" />
          </mxGeometry>
        </mxCell>
      </root>
    </mxGraphModel>
  </diagram>
</mxfile>
